HIERARCHY
ROOT Hips
{
 OFFSET 0.000000 0.000000 0.000000
 CHANNELS 6 Xposition Yposition Zposition Yrotation Xrotation Zrotation
 JOINT Chest
 {
  OFFSET 0.000000 9.303000 0.001900
  CHANNELS 3 Yrotation Xrotation Zrotation
  JOINT Chest2
  {
   OFFSET 0.000000 9.301100 -0.003900
   CHANNELS 3 Yrotation Xrotation Zrotation
   JOINT Chest3
   {
    OFFSET 0.000000 9.262800 0.000000
    CHANNELS 3 Yrotation Xrotation Zrotation
    JOINT Chest4
    {
     OFFSET 0.000000 9.253300 0.000000
     CHANNELS 3 Yrotation Xrotation Zrotation
     JOINT Neck
     {
      OFFSET 0.000000 14.010300 0.000000
      CHANNELS 3 Yrotation Xrotation Zrotation
      JOINT Head
      {
       OFFSET 0.000000 8.657600 -0.008300
       CHANNELS 3 Yrotation Xrotation Zrotation
       End Site
       {
        OFFSET 0.000000 16.540200 -0.004400
       }
      }
     }
     JOINT RightCollar
     {
      OFFSET -2.834100 9.267700 0.000000
      CHANNELS 3 Yrotation Xrotation Zrotation
      JOINT RightShoulder
      {
       OFFSET -13.135200 0.000000 0.000000
       CHANNELS 3 Yrotation Xrotation Zrotation
       JOINT RightElbow
       {
        OFFSET 0.000000 -28.893500 0.000000
        CHANNELS 3 Yrotation Xrotation Zrotation
        JOINT RightWrist
        {
         OFFSET 0.000000 -23.344000 0.000000
         CHANNELS 3 Yrotation Xrotation Zrotation
         End Site
         {
          OFFSET 0.000000 -17.223000 0.000000
         }
        }
       }
      }
     }
     JOINT LeftCollar
     {
      OFFSET 2.834100 9.267700 0.000000
      CHANNELS 3 Yrotation Xrotation Zrotation
      JOINT LeftShoulder
      {
       OFFSET 13.135200 0.000000 0.000000
       CHANNELS 3 Yrotation Xrotation Zrotation
       JOINT LeftElbow
       {
        OFFSET 0.000000 -28.893500 0.000000
        CHANNELS 3 Yrotation Xrotation Zrotation
        JOINT LeftWrist
        {
         OFFSET 0.000000 -23.344000 0.000000
         CHANNELS 3 Yrotation Xrotation Zrotation
         End Site
         {
          OFFSET 0.000000 -17.223000 0.000000
         }
        }
       }
      }
     }
    }
   }
  }
 }
 JOINT RightHip
 {
  OFFSET -7.547200 -0.009500 -0.001000
  CHANNELS 3 Yrotation Xrotation Zrotation
  JOINT RightKnee
  {
   OFFSET 0.000000 -39.762800 0.000900
   CHANNELS 3 Yrotation Xrotation Zrotation
   JOINT RightAnkle
   {
    OFFSET 0.000000 -38.588200 0.001600
    CHANNELS 3 Yrotation Xrotation Zrotation
    JOINT RightToe
    {
     OFFSET 0.000000 -4.693300 10.419700
     CHANNELS 3 Yrotation Xrotation Zrotation
     End Site
     {
      OFFSET 0.000000 -1.379900 5.669300
     }
    }
   }
  }
 }
 JOINT LeftHip
 {
  OFFSET 7.547200 -0.009500 -0.001000
  CHANNELS 3 Yrotation Xrotation Zrotation
  JOINT LeftKnee
  {
   OFFSET 0.000000 -39.762800 0.000900
   CHANNELS 3 Yrotation Xrotation Zrotation
   JOINT LeftAnkle
   {
    OFFSET 0.000000 -38.588200 0.001600
    CHANNELS 3 Yrotation Xrotation Zrotation
    JOINT LeftToe
    {
     OFFSET 0.000000 -4.693300 10.419700
     CHANNELS 3 Yrotation Xrotation Zrotation
     End Site
     {
      OFFSET 0.000000 -1.379900 5.669300
     }
    }
   }
  }
 }
}
MOTION
Frames: 8
Frame Time: 0.008333
0.000000 82.880600 0.000000 0.000000 -5.767877 0.000000 0.000000 11.653817 0.000000 0.000000 -5.885947 0.000000 0.000000 -0.000000 0.000000 0.000000 -0.000000 0.000000 0.000000 12.528835 0.000000 0.000000 0.711642 0.000000 0.000000 -0.000000 0.000000 0.000000 0.000000 -90.000000 0.000000 -2.309062 0.000000 0.000000 2.309062 0.000000 0.000000 -0.000000 0.000000 0.000000 -0.000000 90.000000 0.000000 -2.309062 0.000000 0.000000 2.309062 0.000000 0.000000 8.520406 0.000000 0.000000 1.905762 0.000000 -0.000000 -4.658285 0.000000 0.000000 -0.000000 0.000000 0.000000 8.520406 0.000000 0.000000 1.905762 0.000000 -0.000000 -4.658285 0.000000 0.000000 -0.000000 0.000000
22.669921 45.741964 -9.248180 163.620590 -14.126380 0.046064 3.467130 8.457022 1.171217 0.186488 0.468257 0.052606 0.324840 0.807280 0.096542 3.251494 7.891001 1.132707 -1.798469 20.688610 0.064594 -1.935066 -3.750395 0.484677 1.723457 4.716346 -4.749323 -1.817324 -8.305101 -4.315324 -67.440153 -78.841609 86.611173 -11.323062 -8.006614 -27.500741 -11.072439 2.039831 -5.754173 17.868289 -12.177308 11.468284 57.531383 -56.135382 -81.148794 7.838632 3.375017 14.423684 -13.504074 -73.650212 11.153936 -125.232539 85.273235 -126.156009 -9.940976 -8.476751 -1.157061 -0.016441 -0.029130 -0.016231 -2.536862 -72.874062 24.012808 126.808382 78.624160 124.830796 -12.169716 -13.041598 2.689570 -0.009846 0.023609 -0.009990
22.670802 45.742322 -9.248369 163.618973 -14.129710 0.046817 3.468595 8.463881 1.167151 0.186575 0.465395 0.055981 0.325979 0.812253 0.092743 3.255099 7.891627 1.132630 -1.801489 20.685992 0.070685 -1.937232 -3.753557 0.489613 1.715258 4.715134 -4.745049 -1.816044 -8.308868 -4.312157 -67.427715 -78.845343 86.589960 -11.325933 -7.993954 -27.490829 -11.078500 2.035624 -5.749455 17.863244 -12.178627 11.482681 57.547914 -56.126940 -81.157343 7.843719 3.375413 14.431962 -13.503538 -73.644771 11.161757 -125.206016 85.272325 -126.133833 -9.953874 -8.479062 -1.151181 -0.018428 -0.024754 -0.015980 -2.532522 -72.869547 24.008964 126.803386 78.624427 124.826320 -12.168073 -13.042132 2.689409 -0.012645 0.025500 -0.009278
22.674110 45.742271 -9.246516 163.608770 -14.124684 0.032198 3.483353 8.458776 1.181803 0.183376 0.467094 0.055857 0.329678 0.811685 0.092752 3.253594 7.898948 1.132224 -1.800930 20.677637 0.074370 -1.938091 -3.754409 0.491464 1.712498 4.707155 -4.743314 -1.812380 -8.311718 -4.312841 -67.355673 -78.843489 86.509213 -11.329111 -7.985796 -27.492989 -11.081759 2.027424 -5.746127 17.860350 -12.175636 11.492636 57.568509 -56.124782 -81.169398 7.846748 3.378710 14.431814 -13.568322 -73.645922 11.224063 -125.376380 85.287004 -126.325821 -9.751703 -8.469409 -1.161035 0.010159 -0.026077 -0.009264 -2.579793 -72.872260 24.067875 126.799230 78.625131 124.823087 -12.166445 -13.046707 2.691488 -0.017639 0.030574 -0.012446
22.676642 45.742147 -9.245167 163.604952 -14.120921 0.021652 3.491317 8.453649 1.192925 0.187503 0.467488 0.053882 0.325827 0.811501 0.094548 3.254863 7.901105 1.129390 -1.802839 20.675545 0.078836 -1.941566 -3.755104 0.495804 1.704689 4.707941 -4.740345 -1.805340 -8.314791 -4.315975 -67.336475 -78.838105 86.488450 -11.330893 -7.981744 -27.502798 -11.093224 2.027269 -5.748263 17.860208 -12.176710 11.507430 57.586614 -56.123409 -81.177238 7.853415 3.385208 14.429286 -13.624404 -73.648097 11.270692 -125.530450 85.294588 -126.500251 -9.566946 -8.461896 -1.170487 0.033546 -0.028219 -0.001669 -2.616408 -72.870010 24.110804 126.786907 78.628239 124.808887 -12.171268 -13.053749 2.688929 -0.015117 0.038839 -0.009450
22.678256 45.742097 -9.245207 163.605858 -14.123431 0.017740 3.492505 8.455152 1.197097 0.186815 0.467856 0.053811 0.325942 0.811554 0.094526 3.261401 7.900005 1.127599 -1.808562 20.675976 0.081874 -1.947092 -3.756534 0.499923 1.699105 4.713813 -4.743789 -1.804813 -8.316823 -4.314717 -67.334211 -78.831940 86.488654 -11.331557 -7.985158 -27.509579 -11.105701 2.029963 -5.745728 17.859830 -12.178763 11.514747 57.596105 -56.121054 -81.179152 7.851572 3.377060 14.435819 -13.653288 -73.645873 11.295911 -125.592974 85.289387 -126.574427 -9.514027 -8.464533 -1.169573 0.039606 -0.027698 0.003120 -2.631404 -72.866601 24.126875 126.788487 78.631727 124.810911 -12.171870 -13.053933 2.686017 -0.013498 0.040515 -0.007542
22.677911 45.742023 -9.246610 163.605899 -14.130111 0.027711 3.492992 8.461980 1.186451 0.185112 0.468224 0.055274 0.327683 0.811255 0.092633 3.256386 7.902083 1.127375 -1.808478 20.674608 0.083783 -1.947370 -3.757960 0.502042 1.707758 4.714199 -4.744450 -1.805189 -8.316006 -4.317126 -67.331637 -78.827663 86.485008 -11.332874 -7.992085 -27.512427 -11.105641 2.029879 -5.741282 17.860722 -12.180108 11.515149 57.601253 -56.119438 -81.180348 7.846783 3.378082 14.439013 -13.635196 -73.642508 11.288946 -125.418896 85.272457 -126.398342 -9.654608 -8.467436 -1.159147 0.024311 -0.026052 0.003939 -2.600239 -72.859866 24.095371 126.805153 78.631494 124.830134 -12.176451 -13.056171 2.681000 -0.008275 0.040139 -0.004190
22.675320 45.741855 -9.249160 163.615422 -14.139133 0.050112 3.481401 8.472362 1.160949 0.185973 0.467070 0.055886 0.329237 0.812433 0.090817 3.254117 7.900818 1.125562 -1.811147 20.675051 0.085340 -1.950615 -3.757493 0.504390 1.713449 4.715928 -4.743268 -1.805905 -8.315758 -4.318148 -67.330488 -78.823830 86.478839 -11.333955 -7.995981 -27.512739 -11.107770 2.031978 -5.734954 17.862303 -12.179707 11.512983 57.598091 -56.127041 -81.175995 7.847280 3.378773 14.437572 -13.566549 -73.639940 11.231298 -125.173386 85.250186 -126.135701 -9.957664 -8.479677 -1.139544 -0.020216 -0.020891 -0.000580 -2.530917 -72.850474 24.013536 126.804034 78.633121 124.826802 -12.177142 -13.057253 2.676631 -0.002806 0.041210 0.000753
